HIERARCHY
ROOT Hips
{
	OFFSET 0.00000 0.00000 0.00000
	CHANNELS 6 Xposition Yposition Zposition Zrotation Yrotation Xrotation 
	JOINT LHipJoint
	{
		OFFSET 0 0 0
		CHANNELS 3 Zrotation Yrotation Xrotation
		JOINT LeftHip
		{
			OFFSET 1.51378 -1.89840 0.47569
			CHANNELS 3 Zrotation Yrotation Xrotation
			JOINT LeftKnee
			{
				OFFSET 2.53380 -6.96157 0.00000
				CHANNELS 3 Zrotation Yrotation Xrotation
				JOINT LeftAnkle
				{
					OFFSET 2.74874 -7.55212 0.00000
					CHANNELS 3 Zrotation Yrotation Xrotation
					JOINT LeftToe
					{
						OFFSET 0.18263 -0.50178 1.99677
						CHANNELS 3 Zrotation Yrotation Xrotation
						End Site
						{
							OFFSET 0.00000 -0.00000 1.03711
						}
					}
				}
			}
		}
	}
	JOINT RHipJoint
	{
		OFFSET 0 0 0
		CHANNELS 3 Zrotation Yrotation Xrotation
		JOINT RightHip
		{
			OFFSET -1.43037 -1.89840 0.47569
			CHANNELS 3 Zrotation Yrotation Xrotation
			JOINT RightKnee
			{
				OFFSET -2.69849 -7.41406 0.00000
				CHANNELS 3 Zrotation Yrotation Xrotation
				JOINT RightAnkle
				{
					OFFSET -2.69369 -7.40087 0.00000
					CHANNELS 3 Zrotation Yrotation Xrotation
					JOINT RightToe
					{
						OFFSET -0.28932 -0.79491 2.04975
						CHANNELS 3 Zrotation Yrotation Xrotation
						End Site
						{
							OFFSET 0.00009 0.00010 1.09536
						}
					}
				}
			}
		}
	}
	JOINT lowerback
	{
		OFFSET 0 0 0
		CHANNELS 3 Zrotation Yrotation Xrotation
		JOINT Chest
		{
			OFFSET 0.01912 1.94784 -0.02419
			CHANNELS 3 Zrotation Yrotation Xrotation
			JOINT Chest2
			{
				OFFSET 0.07565 1.94258 0.01909
				CHANNELS 3 Zrotation Yrotation Xrotation
				JOINT lowerneck
				{
					OFFSET 0 0 0
					CHANNELS 3 Zrotation Yrotation Xrotation
					JOINT Neck
					{
						OFFSET -0.07010 1.86195 0.18976
						CHANNELS 3 Zrotation Yrotation Xrotation
						JOINT Head
						{
							OFFSET 0.02284 1.86595 -0.31497
							CHANNELS 3 Zrotation Yrotation Xrotation
							End Site
							{
								OFFSET 0.01200 1.90122 -0.12838
							}
						}
					}
				}
				JOINT LeftCollar
				{
					OFFSET 0 0 0
					CHANNELS 3 Zrotation Yrotation Xrotation
					JOINT LeftShoulder
					{
						OFFSET 3.39189 0.96331 -0.10437
CHANNELS 3 Zrotation Xrotation Yrotation
						JOINT LeftElbow
						{
OFFSET 0 -5.148450 0.000000
CHANNELS 3 Zrotation Xrotation Yrotation
							JOINT LeftWrist
							{
OFFSET 0 -3.436740 -0.000000
CHANNELS 3 Zrotation Xrotation Yrotation
								JOINT lhand
								{
									OFFSET 0 0 0
CHANNELS 3 Zrotation Xrotation Yrotation
									JOINT LFingers
									{
OFFSET 0 -0.588710 0.000000
CHANNELS 3 Zrotation Xrotation Yrotation
										End Site
										{
OFFSET 0 -0.474630 0.000000
										}
									}
								}
								JOINT LThumb
								{
OFFSET 0 0.000000 0.000000
CHANNELS 3 Zrotation Xrotation Yrotation
									End Site
									{
OFFSET 0 -0.481880 0.481880
									}
								}
							}
						}
					}
				}
				JOINT RightCollar
				{
					OFFSET 0 0 0
					CHANNELS 3 Zrotation Yrotation Xrotation
					JOINT RightShoulder
					{
						OFFSET -3.34934 1.18831 -0.19928
CHANNELS 3 Zrotation Xrotation Yrotation
						JOINT RightElbow
						{
OFFSET 0 -5.421850 0.000000
CHANNELS 3 Zrotation Xrotation Yrotation
							JOINT RightWrist
							{
OFFSET 0 -3.513170 -0.000000
CHANNELS 3 Zrotation Xrotation Yrotation
								JOINT rhand
								{
									OFFSET 0 0 0
CHANNELS 3 Zrotation Xrotation Yrotation
									JOINT RFingers
									{
OFFSET 0 -0.663190 0.000000
CHANNELS 3 Zrotation Xrotation Yrotation
										End Site
										{
OFFSET 0 -0.534680 0.000000
										}
									}
								}
								JOINT RThumb
								{
OFFSET 0 0.000000 0.000000
CHANNELS 3 Zrotation Xrotation Yrotation
									End Site
									{
OFFSET 0 -0.542840 0.542840
									}
								}
							}
						}
					}
				}
			}
		}
	}
}
MOTION
Frames: 9
Frame Time: 0.008333333333333333
-10.751342 18.149360 -5.431223 -362.578766 38.055359 9.378369 0.000000 0.000000 0.000000 -13.154717 -16.575059 -24.305795 8.503671 16.477363 54.357036 -0.722934 -18.687159 -5.268132 0.484454 -4.463411 -12.384142 0.000000 0.000000 0.000000 20.205232 8.106836 -25.414688 -4.280363 -12.524429 37.613383 -0.754295 -7.434846 -20.745418 -0.380808 3.961417 -10.968283 1.547182 1.710562 1.200413 2.958238 2.283576 1.745231 2.160442 1.149121 1.056032 -5.272428 -4.678722 -9.780079 -1.510402 -4.436130 34.779728 -0.245233 -2.592784 13.458236 0.000000 0.000000 0.000000 -4.564837 11.214086 -23.567355 25.607306 -36.818206 8.651317 20.527967 -7.507618 -24.909558 0.000000 0.000000 0.000000 -7.125000 0.000000 0.000000 -9.833099 56.084824 2.691966 0.000000 0.000000 0.000000 -8.379124 -5.327688 22.986705 -23.183845 -34.289277 -7.241588 -28.757393 -15.218670 -12.229801 0.000000 0.000000 0.000000 7.125000 0.000000 0.000000 -1.052770 16.093721 -0.719681
-10.988859 18.088861 -6.033453 -363.169673 33.908116 8.215709 0.000000 0.000000 0.000000 -14.454341 -15.877466 -13.071482 6.320246 14.731654 46.253873 -0.693420 -18.274105 -5.108368 0.446672 -4.288066 -11.888422 0.000000 0.000000 0.000000 19.606884 10.647619 -26.913642 -4.412646 -12.690183 38.219639 -0.641922 -5.865758 -18.396324 -0.395627 4.038331 -11.184661 2.037470 1.204995 1.321911 3.146070 1.629260 1.335712 2.071212 0.824629 0.593261 -4.802055 -4.591987 -8.875785 -1.458814 -4.557980 35.221563 -0.311742 -2.603619 13.438044 0.000000 0.000000 0.000000 -3.812387 12.159927 -24.009561 24.898263 -36.099755 8.229902 21.285393 -6.231059 -25.231870 0.000000 0.000000 0.000000 -7.125000 0.000000 0.000000 -9.180983 56.571530 2.619780 0.000000 0.000000 0.000000 -8.032386 -4.625958 22.423940 -23.808485 -34.961057 -7.596562 -28.941162 -16.073776 -12.190082 0.000000 0.000000 0.000000 7.125000 0.000000 0.000000 -1.182961 16.115240 -0.808303
-11.197879 17.878427 -6.875573 -364.363763 29.443520 7.670592 0.000000 0.000000 0.000000 -15.535737 -14.100931 -3.826486 3.062244 10.793509 31.588317 -0.140951 -18.578493 -11.762196 0.205417 -2.910843 -8.031133 0.000000 0.000000 0.000000 18.938555 14.116383 -30.357824 -4.715557 -13.056182 39.578974 -0.623248 -4.161365 -17.006059 -0.333538 3.711726 -10.267034 2.602434 0.974209 1.378831 3.747236 1.338239 1.158346 2.373115 0.681039 0.384808 -4.483070 -4.653597 -8.961871 -1.447551 -4.839487 34.698352 -0.401383 -2.716931 13.216425 0.000000 0.000000 0.000000 -3.609710 11.081403 -24.499201 25.221654 -36.429683 8.421181 22.987862 -5.315485 -26.805258 0.000000 0.000000 0.000000 -7.125000 0.000000 0.000000 -8.082671 58.556834 2.690732 0.000000 0.000000 0.000000 -8.536109 -5.086920 22.757230 -23.927897 -35.087862 -7.665046 -28.131719 -15.868468 -11.831505 0.000000 0.000000 0.000000 7.125000 0.000000 0.000000 -0.654026 16.617422 -0.439864
-11.438868 17.690305 -7.952715 -365.005863 24.027369 8.604156 0.000000 0.000000 0.000000 -17.236716 -10.194555 -4.353471 1.934057 8.727163 24.945639 1.525933 -9.030734 -22.139057 0.246440 -3.190602 -8.810109 0.000000 0.000000 0.000000 17.470222 17.498945 -35.529582 -4.580444 -12.895056 38.977031 -0.379672 -2.262479 -12.686855 -0.248815 3.209519 -8.862690 1.640140 0.713826 1.670118 4.471505 0.986736 1.331539 3.665484 0.496609 0.378703 -4.729868 -4.449472 -10.161732 -0.944537 -4.709154 34.395359 -0.179485 -2.661082 13.365094 0.000000 0.000000 0.000000 -3.638548 7.347418 -24.528485 24.692782 -35.888226 8.109151 23.543498 -4.888999 -27.080046 0.000000 0.000000 0.000000 -7.125000 0.000000 0.000000 -7.603054 58.967823 2.604150 0.000000 0.000000 0.000000 -8.517165 -8.579036 22.646365 -23.273901 -34.386985 -7.292347 -28.030748 -15.407787 -12.355865 0.000000 0.000000 0.000000 7.125000 0.000000 0.000000 -0.540947 16.042667 -0.370539
-11.648557 17.670140 -8.971057 -365.207204 18.209239 9.544570 0.000000 0.000000 0.000000 -17.917430 -8.451057 -8.529844 1.818391 8.477019 24.172701 1.817664 -6.070460 -24.272315 0.102007 -2.059343 -5.669666 0.000000 0.000000 0.000000 16.453897 19.699917 -38.007508 -3.783611 -11.866684 35.262154 -0.355146 0.649182 -11.047464 -0.403578 4.076253 -11.291554 1.254842 0.917301 2.531039 4.222684 1.288420 1.139701 3.602356 0.646581 -0.319398 -4.659484 -4.307585 -10.395259 0.174821 -4.974689 33.981732 0.201673 -2.653161 13.268732 0.000000 0.000000 0.000000 -1.257151 5.396201 -25.731070 24.007109 -35.171751 7.710611 21.983929 -5.361510 -25.956792 0.000000 0.000000 0.000000 -7.125000 0.000000 0.000000 -8.769800 57.462703 2.690383 0.000000 0.000000 0.000000 -6.370741 -8.315886 22.706373 -24.216106 -35.391928 -7.831339 -28.391092 -16.228878 -11.872065 0.000000 0.000000 0.000000 7.125000 0.000000 0.000000 -0.830427 16.540986 -0.559693
-11.823419 17.738344 -9.770600 -364.508721 11.877785 9.966149 0.000000 0.000000 0.000000 -19.416059 -8.287974 -12.305205 2.111433 9.094352 26.090970 1.504433 -1.635433 -22.725345 0.110861 -2.145841 -5.908904 0.000000 0.000000 0.000000 17.747449 20.170404 -38.680347 -5.336660 -13.751803 42.255018 -1.401528 -0.072389 -22.427041 -0.173141 2.680454 -7.390277 0.790419 1.216944 2.720131 3.729765 1.669736 1.233685 3.338846 0.833579 -0.347918 -4.899700 -3.731662 -11.016221 -0.166842 -3.987212 33.986786 0.233843 -2.317666 13.376769 0.000000 0.000000 0.000000 -0.122860 3.331526 -22.498186 23.326536 -34.443894 7.322140 21.629283 -5.262699 -25.551551 0.000000 0.000000 0.000000 -7.125000 0.000000 0.000000 -8.962271 56.971227 2.644150 0.000000 0.000000 0.000000 -5.053772 -6.899791 25.510358 -23.632415 -34.772872 -7.495950 -27.953772 -15.147237 -12.007919 0.000000 0.000000 0.000000 7.125000 0.000000 0.000000 -0.516539 16.441223 -0.349260
-12.020388 17.717177 -10.401103 -363.838197 8.028019 10.412749 0.000000 0.000000 0.000000 -20.018646 -7.497741 -16.363717 2.483238 9.807377 28.355140 1.404057 -0.048473 -22.404013 0.066837 -1.665382 -4.581862 0.000000 0.000000 0.000000 20.318900 17.508843 -36.464545 -8.456149 -16.443958 54.188303 -1.652261 -3.678512 -25.837668 -0.154650 2.528409 -6.968735 0.612177 1.134815 1.632084 3.463798 1.525150 1.134094 3.190076 0.757829 0.169328 -4.640020 -3.232119 -11.322399 -0.549114 -3.235630 33.001406 0.148806 -2.018477 12.981321 0.000000 0.000000 0.000000 0.523955 2.775160 -19.937983 24.532820 -35.722623 8.015544 22.160533 -7.251270 -25.845484 0.000000 0.000000 0.000000 -7.125000 0.000000 0.000000 -8.528358 57.387169 2.600480 0.000000 0.000000 0.000000 -4.152555 -4.711667 26.514234 -23.365038 -34.485565 -7.343968 -27.902457 -14.905505 -11.897560 0.000000 0.000000 0.000000 7.125000 0.000000 0.000000 -0.489916 16.570806 -0.329825
-12.261195 17.701833 -10.927384 -362.335442 5.912102 10.694659 0.000000 0.000000 0.000000 -20.974213 -6.960887 -19.246117 2.652784 10.110501 29.335226 1.244085 0.146445 -21.149133 0.091787 -1.953486 -5.377086 0.000000 0.000000 0.000000 21.667054 13.418331 -29.810438 -9.402652 -17.059981 57.472442 -1.878116 -5.304423 -28.235615 -0.073113 1.744828 -4.801132 -0.288796 1.046266 0.915208 3.108970 1.388146 0.955880 3.345482 0.684736 0.382706 -5.209334 -3.205607 -10.962288 -0.066505 -3.266181 32.243390 0.439232 -2.043883 12.610396 0.000000 0.000000 0.000000 1.095275 1.030186 -19.134379 24.841851 -36.041911 8.196705 21.760301 -6.957250 -26.628962 0.000000 0.000000 0.000000 -7.125000 0.000000 0.000000 -9.336141 58.098812 3.009517 0.000000 0.000000 0.000000 -3.306292 -1.612763 25.453530 -22.906356 -33.986224 -7.085860 -28.334245 -14.436084 -11.747699 0.000000 0.000000 0.000000 7.125000 0.000000 0.000000 -0.801346 16.687342 -0.537606
-12.553140 17.701665 -11.357158 -360.630015 3.198774 11.488650 0.000000 0.000000 0.000000 -21.925139 -6.528048 -22.028812 2.718198 10.224272 29.705993 1.071759 0.830215 -19.881839 0.108509 -2.123671 -5.847571 0.000000 0.000000 0.000000 22.156878 9.510467 -21.445682 -7.199236 -15.495875 49.621207 -1.614837 -6.479604 -27.095017 -0.165278 2.581295 -7.117372 -1.343486 1.177760 0.140624 2.390793 1.568413 0.313758 3.205625 0.780674 0.139610 -5.104433 -3.060603 -10.499685 -0.329672 -3.047136 32.194576 0.357362 -1.976163 12.478726 0.000000 0.000000 0.000000 1.544182 1.233834 -18.796476 26.248342 -37.452881 9.038282 22.232260 -7.160066 -26.788726 0.000000 0.000000 0.000000 -7.125000 0.000000 0.000000 -8.902044 58.368091 2.925150 0.000000 0.000000 0.000000 -2.272621 2.178382 25.059650 -21.528422 -32.439850 -6.331045 -28.695563 -13.699738 -12.521964 0.000000 0.000000 0.000000 7.125000 0.000000 0.000000 -0.984308 15.772887 -0.679671
